<?xml version="1.0" encoding="utf-8"?>
<!-- Svg Vector Icons : http://www.onlinewebfonts.com/icon -->
<!DOCTYPE svg PUBLIC "-//W3C//DTD SVG 1.1//EN" "http://www.w3.org/Graphics/SVG/1.1/DTD/svg11.dtd">
<svg version="1.1" xmlns="http://www.w3.org/2000/svg" xmlns:xlink="http://www.w3.org/1999/xlink" x="0px" y="0px" viewBox="0 0 256 256" enable-background="new 0 0 256 256" xml:space="preserve">
<metadata> Svg Vector Icons : http://www.onlinewebfonts.com/icon </metadata>
<g><g><g><path fill="#000000" d="M133.3,10.5c-8.1,1.2-16.7,4.8-22.2,9.2c-6.2,4.9-11.2,12.8-13.1,20.7c-1.4,5.4-1.1,13.4,0.6,18.7c3.9,11.9,14.5,21.1,28,24.4c2.4,0.6,4.1,1.2,4.1,1.6c0,1.2-2.3,11.1-3.5,14.9c-3.1,9.9-6.2,14.1-12.8,17.2c-9.5,4.5-16.9,9.9-25.9,19c-9.5,9.5-17.4,20.5-24,33.3C58,182,55,195.5,55,213.1c0,9.2,0.6,14.3,2.3,17.7c2.4,4.8,9.4,11.1,12.3,11.1c2.8,0,3.7-2.5,3.7-10c0-6,0.3-6.9,2.1-6.4c1.8,0.6,8.7,7.6,12.5,12.7c2,2.7,4.3,5.4,5.1,6.1c1.8,1.6,4.4,2.1,6,1.2c2.5-1.4,3-4.6,1.4-11c-1.7-6.9-3.6-9.7-15.1-21.9c-7-7.4-8.9-10.2-8.9-13.6c0-2.8,2.1-5.2,4.6-5.2c5,0,12.7,9.4,26.1,31.4c7.2,11.9,8.7,14,10.5,15.2c2.2,1.3,3.8,1.2,5.4-0.3c1.7-1.7,2.5-4.7,2.1-7.7c-0.3-2.5-10.3-23.9-14-29.8c-5.8-9.3-14-16.9-24-22c-2.1-1.1-4.1-2.4-4.3-2.9c-0.6-1.2-0.2-5.8,0.7-7.6c2.6-5,10.1-1.8,21.5,9.3c9.9,9.7,23.7,27.3,27.6,35.3c0.6,1.2,2,4.3,3.3,7c4.5,9.5,11.3,14.5,12.3,8.9c0.7-3.7-2-10.2-9.7-23.3c-8.4-14.5-15.5-25.3-20.7-31.6c-3.5-4.2-10.7-11.4-14.3-14.2c-2-1.5-3.9-3.3-4.3-4.1c-1-1.9-0.9-5.4,0.2-7.3c2.6-4.2,7.8-4.4,13.6-0.2c9.3,6.6,15.5,14.7,29.1,38c10.7,18.2,15.5,24.4,18.6,24.4c0.9,0,1.6-0.3,1.9-0.9c2.2-4.1-3.3-23.5-10.9-38.4c-7.7-15.3-17-26-28.1-32.7c-5.2-3.1-6.9-4.8-7.3-7.2c-0.4-2.1,0.5-3.8,2.4-4.7c1.1-0.6,1.9-0.6,4.4-0.1c9,1.5,20.2,10.7,28.9,23.9c3.5,5.3,5,6.6,7.2,6.6c4.3,0,3.5-8.5-2-20.2c-2.4-5-6.2-11.3-8.8-14.1c-0.8-1-2.9-2.7-4.7-3.8c-3.9-2.5-5.6-4.9-5.9-8.3c-0.3-3.4,0.4-5.7,3.7-13.4c1.5-3.6,3.2-8.3,3.8-10.6l1.1-4.2l4.2,0c5.4,0.1,8.5,0.8,10.3,2.5c1.4,1.3,1.4,1.4,1.1,4.8c-0.2,2.1-0.1,3.8,0.2,4.3c0.6,1.2,3,2.2,7.9,3.4c5.6,1.3,7.1,2.5,9.8,7.8c1.2,2.4,2.9,5.1,3.6,5.9c1.9,1.9,4.9,3.1,7,2.7c2.7-0.5,4.9-4,4.9-7.9c0-3.1,1.1-6.6,3.3-11.1c3.3-6.6,3.2-8.9-0.6-14l-1.9-2.5l0.1-8.1c0.1-4.7,0-8.6-0.3-9.3c-0.5-1.2-2.8-2.7-5.2-3.3c-0.7-0.1-4.1-0.5-7.6-0.7c-10.5-0.7-13.1-2.7-13.1-9.5c0-5.8,2.4-8.7,8.4-9.9c2.5-0.5,2.8-0.5,4.7,0.6c1.9,1.1,5.4,5.1,5.4,6.2c0,0.9,2.9,2.9,3.9,2.8c2-0.3,2.7-6.1,1.5-14c-1.1-7.4-2.9-9.6-12-15.2c-6.8-4.2-10.6-5.6-19.4-7.3C150.2,10.1,140.4,9.4,133.3,10.5z M137.5,40.8c2.1,1.2,3.3,4.1,4.7,11.5c2.1,10.2,3,11.4,11.3,15.3c4.2,2,7.9,3,12.1,3.5c3.2,0.3,4.8,1.2,4.8,2.5c0,1.4-1.5,1.8-6.1,1.8c-15.2,0-25.8-2.9-31.7-8.7c-7-6.9-9.8-20.5-5.1-24.8C129.8,39.9,135,39.3,137.5,40.8z"/></g></g></g>
</svg>